<svg width="512" height="512" xmlns="http://www.w3.org/2000/svg">

 <g>
  <title>background</title>
  <rect fill="none" id="canvas_background" height="402" width="582" y="-1" x="-1"/>
 </g>
 <g>
  <title>Layer 1</title>
  <path fill="#e3b873" id="svg_1" d="m256,512c-68.37891,0 -132.66797,-26.62891 -181.01953,-74.98047c-48.35156,-48.35156 -74.98047,-112.64062 -74.98047,-181.01953s26.62891,-132.66797 74.98047,-181.01953c48.35156,-48.35156 112.64062,-74.98047 181.01953,-74.98047s132.66797,26.62891 181.01953,74.98047c48.35156,48.35156 74.98047,112.64062 74.98047,181.01953s-26.62891,132.66797 -74.98047,181.01953c-48.35156,48.35156 -112.64062,74.98047 -181.01953,74.98047zm0,-472c-119.10156,0 -216,96.89844 -216,216s96.89844,216 216,216s216,-96.89844 216,-216s-96.89844,-216 -216,-216zm138.28516,182l-28.28516,-28.28516l-110,110l-110,-110l-28.28516,28.28516l138.28516,138.28516l138.28516,-138.28516zm0,0"/>
 </g>
</svg>