<svg width="34" height="31" viewBox="0 0 34 31" fill="none" xmlns="http://www.w3.org/2000/svg">
<path d="M22.4261 5.48307L17.5806 4.04163C17.2169 3.93403 16.843 3.89614 16.4726 3.90956V3.89719H10.5833L0.139648 0.456055L0.171223 15.0067L3.16919 16.4926L4.94426 12.1899L7.53734 13.2185L8.20968 11.5524L9.18345 12.5179L8.27495 13.419C7.95921 13.7321 7.77825 14.1651 7.77825 14.6081C7.77825 15.5147 8.50738 16.2519 9.41428 16.2837C9.44586 17.1624 10.1583 17.8688 11.0445 17.9001C11.0761 18.7788 11.7885 19.4852 12.6747 19.5165C12.7073 20.4157 13.4502 21.1387 14.3648 21.1387C14.8114 21.1387 15.2484 20.9592 15.5639 20.6462L16.4726 19.7454L16.8377 20.1074C17.1535 20.4205 17.5902 20.5999 18.037 20.5999C18.9516 20.5999 19.6948 19.8769 19.7269 18.9777C20.6131 18.9464 21.3255 18.24 21.3571 17.3613C22.2433 17.33 22.9557 16.6236 22.9873 15.7449C23.8942 15.7126 24.6236 14.9759 24.6236 14.0693C24.6236 13.9928 24.6111 13.9173 24.6008 13.8412L25.3806 13.068L26.0107 14.3182L29.4239 12.6258L31.4866 16.5305L33.8613 14.9615V1.03563L22.4261 5.48307ZM2.60616 15.0088L1.25696 14.3398L1.22963 1.95064L7.18418 3.91298L2.60616 15.0088ZM6.93212 11.8176L5.35526 11.1925L8.21791 4.25341L9.77567 4.76695L6.93212 11.8176ZM8.86505 14.6081C8.86505 14.449 8.92953 14.2935 9.04309 14.1806L9.99854 13.2335C10.1121 13.1209 10.2692 13.0567 10.4294 13.0567C10.7653 13.0567 11.0386 13.328 11.0386 13.6608C11.0386 13.8197 10.9739 13.9754 10.8603 14.088L9.90515 15.0354C9.79159 15.148 9.63451 15.2119 9.47425 15.2119C9.13834 15.2119 8.86505 14.9409 8.86505 14.6081ZM10.4952 16.2245C10.4952 16.0654 10.5597 15.9099 10.6733 15.797L11.6287 14.8499C11.7423 14.7373 11.8994 14.6731 12.0596 14.6731C12.3955 14.6731 12.6688 14.9444 12.6688 15.2772C12.6688 15.4361 12.6041 15.5918 12.4905 15.7044L11.5353 16.6518C11.4218 16.7644 11.2647 16.8283 11.1044 16.8283C10.7685 16.8283 10.4952 16.5573 10.4952 16.2245ZM12.1254 17.8409C12.1254 17.6817 12.1899 17.5263 12.3035 17.4134L13.2589 16.4663C13.3725 16.3537 13.5296 16.2895 13.6898 16.2895C14.0257 16.2895 14.299 16.5607 14.299 16.8935C14.299 17.0525 14.2343 17.2082 14.1207 17.3208L13.1655 18.2682C13.052 18.3808 12.8949 18.4447 12.7346 18.4447C12.3987 18.4447 12.1254 18.1737 12.1254 17.8409ZM15.7509 18.9372L14.7957 19.8846C14.6822 19.9972 14.5251 20.0611 14.3648 20.0611C14.0289 20.0611 13.7556 19.7901 13.7556 19.4573C13.7556 19.2981 13.8201 19.1427 13.9337 19.0298L14.8891 18.0827C15.0027 17.9701 15.1598 17.9059 15.32 17.9059C15.6559 17.9059 15.9292 18.1771 15.9292 18.5099C15.9292 18.6688 15.8645 18.8246 15.7509 18.9372ZM22.9276 14.6731C22.7673 14.6731 22.6102 14.6092 22.4967 14.4966L17.9436 9.9818L17.1752 10.7437L21.7283 15.2582C21.8418 15.3711 21.9066 15.5266 21.9066 15.6857C21.9066 16.0185 21.6333 16.2895 21.2974 16.2895C21.1371 16.2895 20.9801 16.2256 20.8665 16.113L16.3134 11.5982L15.545 12.3601L20.0981 16.8746C20.2117 16.9875 20.2764 17.143 20.2764 17.3021C20.2764 17.6349 20.0031 17.9059 19.6672 17.9059C19.5069 17.9059 19.3499 17.842 19.2363 17.7294L14.6832 13.2146L13.9148 13.9765L18.4679 18.491C18.5815 18.6039 18.6462 18.7593 18.6462 18.9185C18.6462 19.2513 18.3729 19.5223 18.037 19.5223C17.8767 19.5223 17.7197 19.4584 17.6061 19.3458L16.9932 18.7378C17.0041 18.6625 17.016 18.587 17.016 18.5099C17.016 17.6031 16.2866 16.8662 15.3797 16.8344C15.3481 15.9557 14.6357 15.2493 13.7495 15.218C13.7179 14.3393 13.0055 13.6329 12.1193 13.6016C12.0867 12.7024 11.344 11.9791 10.4294 11.9791C10.3522 11.9791 10.2761 11.9915 10.1997 12.0018L8.64827 10.4635L10.863 4.97479H14.074L12.0787 6.95344C11.758 7.27072 11.582 7.69323 11.582 8.14258C11.582 9.06969 12.3427 9.82395 13.278 9.82395C13.7246 9.82395 14.1616 9.64453 14.4771 9.33146L15.9167 7.9037C16.2113 7.61273 16.73 7.60142 17.0367 7.88002L18.3071 9.0347C18.7292 9.41828 19.1984 9.7374 19.7004 9.98733L23.3585 13.6418C23.472 13.7547 23.5368 13.9102 23.5368 14.0693C23.5368 14.4021 23.2635 14.6731 22.9276 14.6731ZM24.0802 12.8336L21.8466 10.6022C22.0462 10.6208 22.2473 10.6321 22.45 10.6321V9.55455C21.1849 9.55455 19.9742 9.08758 19.0418 8.23992L17.7711 7.08577C17.054 6.4328 15.8374 6.45884 15.1489 7.14234L13.7095 8.56983C13.5954 8.6819 13.4383 8.74636 13.278 8.74636C12.9421 8.74636 12.6688 8.47538 12.6688 8.14258C12.6688 7.98079 12.7317 7.82951 12.8469 7.71507L14.9183 5.66144C15.527 5.05792 16.441 4.82825 17.2681 5.07397L22.0684 6.50173L24.8674 12.0531L24.0802 12.8336ZM26.4965 12.8726L23.2019 6.33861L25.6082 5.40256L28.9195 11.6711L26.4965 12.8726ZM32.7745 14.385L31.8886 14.9707L26.626 5.00715L32.7745 2.61597V14.385Z" fill="#E3B873"/>
<circle cx="19.6667" cy="2.57397" r="0.485591" fill="#E3B873"/>
<circle cx="7.40991" cy="25.5032" r="0.485591" fill="#E3B873"/>
<circle cx="9.46801" cy="27.1916" r="0.485591" fill="#E3B873"/>
<circle cx="11.8166" cy="28.4304" r="0.485591" fill="#E3B873"/>
<circle cx="14.3655" cy="29.2229" r="0.485591" fill="#E3B873"/>
<circle cx="22.2141" cy="3.34692" r="0.485591" fill="#E3B873"/>
<circle cx="24.5632" cy="4.60131" r="0.485591" fill="#E3B873"/>
<path d="M26.8305 3.89941V6.70111H23.9971" stroke="#E3B873" stroke-linecap="round" stroke-linejoin="round"/>
<path d="M5.01039 25.1865L5.01039 22.9197L7.27441 22.9197" stroke="#E3B873" stroke-linecap="round" stroke-linejoin="round"/>
<path d="M7.80078 5.88243C9.3359 4.54661 10.3124 3.93205 12.1519 3.2138C14.1033 2.45186 15.4237 2.27294 17.5441 2.27295" stroke="#E3B873" stroke-linecap="round"/>
<path d="M28.4046 23.3709C27.2633 25.1511 25.1376 26.8893 23.4089 27.8437C21.575 28.8563 19.6102 29.4268 16.9931 29.5632" stroke="#E3B873" stroke-linecap="round"/>
</svg>
