<svg width="34" height="32" viewBox="0 0 34 32" fill="none" xmlns="http://www.w3.org/2000/svg">
<path d="M24.6001 2.43396C24.3373 1.19132 23.1962 0.25293 21.8313 0.25293C21.5193 0.25293 21.2661 0.49666 21.2661 0.798188C21.2661 1.09972 21.5193 1.34345 21.8313 1.34345C22.7661 1.34345 23.5268 2.07736 23.5268 2.97922C23.5268 3.88108 22.7661 4.61499 21.8313 4.61499C21.5193 4.61499 21.2661 4.85873 21.2661 5.16025C21.2661 5.46178 21.5193 5.70551 21.8313 5.70551C23.1956 5.70551 24.3373 4.76712 24.6001 3.52448H32.0047V8.4318H1.48439V3.52448H9.39707H11.0926C11.4046 3.52448 11.6578 3.28075 11.6578 2.97922C11.6578 2.67769 11.4046 2.43396 11.0926 2.43396H10.0663C10.3002 1.80037 10.922 1.34345 11.6578 1.34345C12.5927 1.34345 13.3534 2.07736 13.3534 2.97922C13.3534 3.88108 12.5927 4.61499 11.6578 4.61499C11.3458 4.61499 11.0926 4.85873 11.0926 5.16025C11.0926 5.46178 11.3458 5.70551 11.6578 5.70551C13.2161 5.70551 14.4838 4.4825 14.4838 2.97922C14.4838 1.47594 13.2161 0.25293 11.6578 0.25293C10.2935 0.25293 9.15177 1.19132 8.88896 2.43396H0.354004V9.52232V31.3326H33.1351V9.52232V2.43396H24.6001ZM32.0047 30.2421H1.48439V9.52232H32.0047V30.2421Z" fill="white"/>
<path d="M15.0491 1.34346C15.9839 1.34346 16.7446 2.07738 16.7446 2.97925C16.7446 3.88111 15.9839 4.61504 15.0491 4.61504C14.7371 4.61504 14.4839 4.85877 14.4839 5.1603C14.4839 5.46183 14.7371 5.70557 15.0491 5.70557C16.6073 5.70557 17.875 4.48254 17.875 2.97925C17.875 1.47596 16.6073 0.25293 15.0491 0.25293C14.7371 0.25293 14.4839 0.496663 14.4839 0.798193C14.4839 1.09972 14.7371 1.34346 15.0491 1.34346Z" fill="white"/>
<path d="M18.4402 1.34346C19.375 1.34346 20.1358 2.07738 20.1358 2.97925C20.1358 3.88111 19.375 4.61504 18.4402 4.61504C18.1282 4.61504 17.875 4.85877 17.875 5.1603C17.875 5.46183 18.1282 5.70557 18.4402 5.70557C19.9984 5.70557 21.2662 4.48254 21.2662 2.97925C21.2662 1.47596 19.9984 0.25293 18.4402 0.25293C18.1282 0.25293 17.875 0.496663 17.875 0.798193C17.875 1.09972 18.1282 1.34346 18.4402 1.34346Z" fill="white"/>
<path d="M5.44068 13.884H17.8749C18.1869 13.884 18.4401 13.6403 18.4401 13.3387C18.4401 13.0372 18.1869 12.7935 17.8749 12.7935H5.44068C5.12869 12.7935 4.87549 13.0372 4.87549 13.3387C4.87549 13.6403 5.12869 13.884 5.44068 13.884Z" fill="white"/>
<path d="M28.0484 21.5181H19.5706C19.2586 21.5181 19.0054 21.7618 19.0054 22.0634C19.0054 22.3649 19.2586 22.6086 19.5706 22.6086H28.0484C28.3604 22.6086 28.6136 22.3649 28.6136 22.0634C28.6136 21.7618 28.3604 21.5181 28.0484 21.5181Z" fill="white"/>
<path d="M5.44068 18.2462H11.0926C11.4046 18.2462 11.6578 18.0025 11.6578 17.701C11.6578 17.3995 11.4046 17.1558 11.0926 17.1558H5.44068C5.12869 17.1558 4.87549 17.3995 4.87549 17.701C4.87549 18.0025 5.12869 18.2462 5.44068 18.2462Z" fill="white"/>
<path d="M28.0486 25.8799H22.3967C22.0847 25.8799 21.8315 26.1236 21.8315 26.4252C21.8315 26.7267 22.0847 26.9705 22.3967 26.9705H28.0486C28.3606 26.9705 28.6138 26.7267 28.6138 26.4252C28.6138 26.1236 28.3606 25.8799 28.0486 25.8799Z" fill="white"/>
<path d="M16.1792 17.701C16.1792 18.0025 16.4324 18.2462 16.7444 18.2462H25.2223C25.5343 18.2462 25.7875 18.0025 25.7875 17.701C25.7875 17.3995 25.5343 17.1558 25.2223 17.1558H16.7444C16.4324 17.1558 16.1792 17.3995 16.1792 17.701Z" fill="white"/>
<path d="M14.32 18.0888C14.4217 17.9852 14.4839 17.8434 14.4839 17.7016C14.4839 17.5593 14.4217 17.4175 14.32 17.3144C14.1109 17.1126 13.7265 17.1126 13.5174 17.3144C13.4157 17.4175 13.3535 17.5593 13.3535 17.7016C13.3535 17.8434 13.4157 17.9852 13.5174 18.0888C13.6248 18.1919 13.7718 18.2469 13.9187 18.2469C14.0656 18.2469 14.2126 18.1919 14.32 18.0888Z" fill="white"/>
<path d="M7.70166 22.0634C7.70166 22.3649 7.95487 22.6086 8.26685 22.6086H16.7447C17.0567 22.6086 17.3099 22.3649 17.3099 22.0634C17.3099 21.7618 17.0567 21.5181 16.7447 21.5181H8.26685C7.95487 21.5181 7.70166 21.7618 7.70166 22.0634Z" fill="white"/>
<path d="M5.44069 22.609C5.58764 22.609 5.73459 22.549 5.84198 22.4509C5.94372 22.3473 6.00589 22.2055 6.00589 22.0637C6.00589 21.9214 5.94372 21.7796 5.84198 21.682C5.63286 21.4748 5.24852 21.4748 5.0394 21.6765C4.93766 21.7796 4.87549 21.9214 4.87549 22.0637C4.87549 22.2055 4.93766 22.3473 5.0394 22.4509C5.14678 22.549 5.28808 22.609 5.44069 22.609Z" fill="white"/>
<path d="M28.0486 18.2469C28.1955 18.2469 28.3425 18.1919 28.4499 18.0888C28.5573 17.9852 28.6138 17.8434 28.6138 17.7016C28.6138 17.5593 28.5573 17.4175 28.4499 17.3144C28.2351 17.1126 27.8564 17.1126 27.6473 17.3144C27.5456 17.4175 27.4834 17.5593 27.4834 17.7016C27.4834 17.8434 27.5456 17.9852 27.6473 18.0888C27.7547 18.1919 27.9016 18.2469 28.0486 18.2469Z" fill="white"/>
<path d="M19.5705 25.8799H5.44068C5.12869 25.8799 4.87549 26.1236 4.87549 26.4252C4.87549 26.7267 5.12869 26.9705 5.44068 26.9705H19.5705C19.8825 26.9705 20.1357 26.7267 20.1357 26.4252C20.1357 26.1236 19.8825 25.8799 19.5705 25.8799Z" fill="white"/>
</svg>
