<svg width="33" height="32" viewBox="0 0 33 32" fill="none" xmlns="http://www.w3.org/2000/svg">
<path fill-rule="evenodd" clip-rule="evenodd" d="M3.25049 0.631567C3.25049 0.422451 3.42872 0.25293 3.64859 0.25293H32.3117C32.5316 0.25293 32.7098 0.422451 32.7098 0.631567V28.0197C32.7098 28.2288 32.5316 28.3983 32.3117 28.3983C32.0918 28.3983 31.9136 28.2288 31.9136 28.0197V1.0102H3.64859C3.42872 1.0102 3.25049 0.840683 3.25049 0.631567Z" fill="white" stroke="white" stroke-width="0.5" stroke-linecap="round" stroke-linejoin="round"/>
<path d="M6.15398 6.50499L6.06597 6.41623L6.15399 6.50499C6.35754 6.30315 6.35754 5.97547 6.15398 5.77364L3.64049 3.28143C3.43752 3.08018 3.10888 3.08018 2.90591 3.28143L0.392414 5.77364C0.188855 5.97547 0.188856 6.30315 0.392413 6.50499L0.392414 6.50499C0.595383 6.70624 0.924023 6.70624 1.12699 6.50499L2.75324 4.89252L2.75324 28.4492L2.75324 28.5742L2.87824 28.5742L3.66816 28.5742L3.79316 28.5742L3.79316 28.4492L3.79316 4.89252L5.41941 6.50499C5.62238 6.70624 5.95102 6.70624 6.15398 6.50499Z" fill="white" stroke="white" stroke-width="0.25"/>
<path d="M2.75244 28.8404V28.9654H2.87744L26.7587 28.9654L25.1268 30.5751C24.9221 30.777 24.9221 31.105 25.1268 31.3069C25.3305 31.5079 25.6601 31.5079 25.8638 31.3069L28.3904 28.8147C28.5951 28.6128 28.5951 28.2848 28.3904 28.0829L25.8638 25.5907C25.6601 25.3897 25.3305 25.3897 25.1268 25.5907C24.9221 25.7925 24.9221 26.1206 25.1268 26.3225L26.7587 27.9322L2.87744 27.9322H2.75244V28.0572V28.8404Z" fill="white" stroke="white" stroke-width="0.25"/>
<path fill-rule="evenodd" clip-rule="evenodd" d="M14.1628 0.36763C14.317 0.520563 14.317 0.768517 14.1628 0.92145L9.42326 5.62077C9.26902 5.77371 9.01894 5.77371 8.8647 5.62077C8.71046 5.46784 8.71046 5.21989 8.8647 5.06695L13.6042 0.36763C13.7584 0.214696 14.0085 0.214696 14.1628 0.36763Z" fill="white" stroke="white" stroke-width="0.5" stroke-linecap="round" stroke-linejoin="round"/>
<path fill-rule="evenodd" clip-rule="evenodd" d="M32.4621 19.0346C32.6164 19.1876 32.6164 19.4355 32.4621 19.5885L28.1176 23.8964C27.9634 24.0493 27.7133 24.0493 27.559 23.8964C27.4048 23.7435 27.4048 23.4955 27.559 23.3426L31.9036 19.0346C32.0578 18.8817 32.3079 18.8817 32.4621 19.0346Z" fill="white" stroke="white" stroke-width="0.5" stroke-linecap="round" stroke-linejoin="round"/>
<path fill-rule="evenodd" clip-rule="evenodd" d="M20.0849 0.365871C20.2401 0.517827 20.2417 0.765775 20.0885 0.919678L9.81956 11.232C9.66631 11.3859 9.41624 11.3875 9.26102 11.2356C9.1058 11.0836 9.10421 10.8357 9.25746 10.6818L19.5264 0.369399C19.6796 0.215495 19.9297 0.213916 20.0849 0.365871Z" fill="white" stroke="white" stroke-width="0.5" stroke-linecap="round" stroke-linejoin="round"/>
<path fill-rule="evenodd" clip-rule="evenodd" d="M32.5939 12.5073C32.7481 12.6602 32.7481 12.9082 32.5939 13.0611L22.5883 22.982C22.4341 23.1349 22.184 23.1349 22.0297 22.982C21.8755 22.829 21.8755 22.5811 22.0297 22.4282L32.0353 12.5073C32.1896 12.3543 32.4396 12.3543 32.5939 12.5073Z" fill="white" stroke="white" stroke-width="0.5" stroke-linecap="round" stroke-linejoin="round"/>
<path fill-rule="evenodd" clip-rule="evenodd" d="M26.4084 0.501464C26.5614 0.655625 26.5594 0.903571 26.4039 1.05527L9.94736 17.1113C9.79189 17.263 9.54182 17.261 9.38883 17.1068C9.23584 16.9527 9.23785 16.7047 9.39333 16.553L25.8499 0.496997C26.0054 0.345302 26.2555 0.347302 26.4084 0.501464Z" fill="white" stroke="white" stroke-width="0.5" stroke-linecap="round" stroke-linejoin="round"/>
<path fill-rule="evenodd" clip-rule="evenodd" d="M32.594 6.37251C32.7482 6.52545 32.7482 6.7734 32.594 6.92634L16.0058 23.3741C15.8515 23.527 15.6015 23.527 15.4472 23.3741C15.293 23.2211 15.293 22.9732 15.4472 22.8202L32.0354 6.37251C32.1897 6.21958 32.4397 6.21958 32.594 6.37251Z" fill="white" stroke="white" stroke-width="0.5" stroke-linecap="round" stroke-linejoin="round"/>
<path fill-rule="evenodd" clip-rule="evenodd" d="M32.3307 0.499222C32.4849 0.652157 32.4849 0.900113 32.3307 1.05305L9.68644 23.5055C9.5322 23.6585 9.28213 23.6585 9.12789 23.5055C8.97365 23.3526 8.97365 23.1046 9.12789 22.9517L31.7721 0.499222C31.9264 0.346288 32.1764 0.346288 32.3307 0.499222Z" fill="white" stroke="white" stroke-width="0.5" stroke-linecap="round" stroke-linejoin="round"/>
</svg>
