<svg width="43" height="44" viewBox="0 0 43 44" fill="none" xmlns="http://www.w3.org/2000/svg">
<path d="M28.6292 2.92344L28.4547 3.89201C31.4466 5.00611 34.1541 6.83099 36.3396 9.24645C39.6824 12.9421 41.5234 17.7233 41.5234 22.7108C41.5234 22.7908 41.4589 22.8553 41.3789 22.8553C41.299 22.8553 41.2343 22.7906 41.2343 22.7108C41.2343 12.8154 34.0045 4.52317 24.2983 3.1286L23.7272 3.04654V3.62352V4.9146C23.7272 4.99463 23.6627 5.05913 23.5827 5.05913H19.3116C19.2318 5.05913 19.1671 4.99446 19.1671 4.9146V3.62352V3.04654L18.596 3.1286C8.88985 4.52317 1.65967 12.8154 1.65967 22.7108C1.65967 22.7906 1.595 22.8553 1.51514 22.8553C1.43527 22.8553 1.3706 22.7906 1.3706 22.7108C1.3706 17.7233 3.21157 12.9421 6.55477 9.24648C8.7399 6.83104 11.4474 5.00646 14.4393 3.89235L14.2648 2.92378H6.32732H5.96545L5.85237 3.26752C5.64604 3.89466 5.05495 4.34712 4.3625 4.34712C3.49818 4.34712 2.79428 3.64335 2.79428 2.77925C2.79428 1.91503 3.49829 1.21103 4.3625 1.21103C5.05491 1.21103 5.646 1.66345 5.85235 2.29091L5.96541 2.63471H6.32732H18.6671H19.1671V2.13471V0.643557C19.1671 0.563698 19.2318 0.499022 19.3116 0.499022H23.5827C23.6627 0.499022 23.7272 0.563526 23.7272 0.643557V2.13438V2.63438H24.2272H36.567H36.9289L37.042 2.29064C37.2483 1.66345 37.8394 1.21103 38.5315 1.21103C39.3958 1.21103 40.0997 1.9148 40.0997 2.77891C40.0997 3.64317 39.396 4.34712 38.5315 4.34712C37.8391 4.34712 37.248 3.8947 37.0417 3.26724L36.9286 2.92344H36.5667H28.6292ZM19.4562 4.27006V4.77006H19.9562H22.9382H23.4382V4.27006V2.89103V2.88868V2.78059V2.77891V2.77723V1.28809V0.788091H22.9382H19.9562H19.4562V1.28809V2.88969V2.89002V4.27006ZM39.8106 2.77891C39.8106 2.07327 39.2372 1.5001 38.5315 1.5001C37.8258 1.5001 37.2524 2.07328 37.2524 2.77891C37.2524 3.48474 37.8257 4.05806 38.5315 4.05806C39.2373 4.05806 39.8106 3.48474 39.8106 2.77891ZM3.08335 2.77925C3.08335 3.48488 3.65681 4.05806 4.3625 4.05806C5.06819 4.05806 5.64165 3.48488 5.64165 2.77925C5.64165 2.07341 5.06833 1.5001 4.3625 1.5001C3.65667 1.5001 3.08335 2.07341 3.08335 2.77925Z" fill="white" stroke="white" stroke-width="0.999998"/>
<mask id="path-2-inside-1" fill="white">
<path d="M23.4338 7.44785C23.32 7.24374 23.1049 7.11719 22.8712 7.11719H20.0235C19.7902 7.11719 19.5747 7.24374 19.4609 7.44785L10.9185 22.7525C10.8651 22.8485 10.8369 22.9566 10.8369 23.0667V23.7787C10.8369 23.9006 10.8715 24.0197 10.9366 24.1228L14.5833 29.8964H12.1931C11.8373 29.8964 11.5486 30.1848 11.5486 30.5409C11.5486 30.8968 11.8373 31.1855 12.1931 31.1855H12.2606V33.3883C12.2606 33.7445 12.549 34.0328 12.9051 34.0328H13.6839V36.236C13.6839 36.5918 13.9726 36.8805 14.3285 36.8805H15.108V39.081V39.0834V39.086V43.3544C15.108 43.7106 15.3967 43.9989 15.7525 43.9989H27.1423C27.4981 43.9989 27.7868 43.7106 27.7868 43.3544V36.8805H28.5659C28.9218 36.8805 29.2105 36.5918 29.2105 36.236V34.0328H29.9896C30.3455 34.0328 30.6342 33.7445 30.6342 33.3883V31.1855H30.7016C31.0575 31.1855 31.3462 30.8968 31.3462 30.5409C31.3462 30.1848 31.0575 29.8964 30.7016 29.8964H29.9913C29.9906 29.8964 29.9903 29.8964 29.9896 29.8964C29.989 29.8964 29.9886 29.8964 29.9879 29.8964H28.3115L31.9581 24.1228C32.0233 24.0197 32.0578 23.9006 32.0578 23.7787V23.0667C32.0578 22.9566 32.0296 22.8485 31.9759 22.7525L23.4338 7.44785ZM21.4475 21.2197C21.8772 21.2197 22.2267 21.5692 22.2267 21.9989C22.2267 22.4285 21.8772 22.778 21.4475 22.778C21.0179 22.778 20.6684 22.4285 20.6684 21.9989C20.6684 21.5692 21.0179 21.2197 21.4475 21.2197ZM27.9214 35.5911H20.8497C20.4938 35.5911 20.2051 35.8798 20.2051 36.2357C20.2051 36.5918 20.4938 36.8802 20.8497 36.8802H26.4977V38.4385H25.7182C25.3624 38.4385 25.0737 38.7269 25.0737 39.083C25.0737 39.4392 25.3624 39.7276 25.7182 39.7276H26.4974V42.7099H16.397V39.7279H17.1762C17.532 39.7279 17.8207 39.4395 17.8207 39.0834C17.8207 38.7272 17.532 38.4388 17.1762 38.4388H16.397V36.8802H18.0956C18.4518 36.8802 18.7402 36.5918 18.7402 36.2357C18.7402 35.8798 18.4518 35.5911 18.0956 35.5911H14.973V34.0328H27.9214V35.5911ZM29.3451 32.7438H13.5497V31.1855H27.1402H27.1416H27.1429H29.3451V32.7438ZM30.7688 23.5921L29.4844 25.6254H27.8539C27.4981 25.6254 27.2094 25.9137 27.2094 26.2699C27.2094 26.6261 27.4981 26.9144 27.8539 26.9144H28.6703L26.7868 29.8964H22.0917V28.4053C22.0917 28.0494 21.8034 27.7607 21.4472 27.7607C21.0914 27.7607 20.8027 28.0494 20.8027 28.4053V29.8964H16.1077L14.2244 26.9144H15.0405C15.3967 26.9144 15.685 26.6261 15.685 26.2699C15.685 25.9137 15.3967 25.6254 15.0405 25.6254H13.41L12.126 23.5921V23.2342L20.4022 8.40625H20.8027V20.034C19.9772 20.3056 19.379 21.0834 19.379 21.9985C19.379 23.1392 20.3069 24.0671 21.4472 24.0671C22.5879 24.0671 23.5158 23.1392 23.5158 21.9985C23.5158 21.0834 22.9175 20.3053 22.0921 20.034V8.40625H22.4926L30.7688 23.2342V23.5921Z"/>
</mask>
<path d="M23.4338 7.44785C23.32 7.24374 23.1049 7.11719 22.8712 7.11719H20.0235C19.7902 7.11719 19.5747 7.24374 19.4609 7.44785L10.9185 22.7525C10.8651 22.8485 10.8369 22.9566 10.8369 23.0667V23.7787C10.8369 23.9006 10.8715 24.0197 10.9366 24.1228L14.5833 29.8964H12.1931C11.8373 29.8964 11.5486 30.1848 11.5486 30.5409C11.5486 30.8968 11.8373 31.1855 12.1931 31.1855H12.2606V33.3883C12.2606 33.7445 12.549 34.0328 12.9051 34.0328H13.6839V36.236C13.6839 36.5918 13.9726 36.8805 14.3285 36.8805H15.108V39.081V39.0834V39.086V43.3544C15.108 43.7106 15.3967 43.9989 15.7525 43.9989H27.1423C27.4981 43.9989 27.7868 43.7106 27.7868 43.3544V36.8805H28.5659C28.9218 36.8805 29.2105 36.5918 29.2105 36.236V34.0328H29.9896C30.3455 34.0328 30.6342 33.7445 30.6342 33.3883V31.1855H30.7016C31.0575 31.1855 31.3462 30.8968 31.3462 30.5409C31.3462 30.1848 31.0575 29.8964 30.7016 29.8964H29.9913C29.9906 29.8964 29.9903 29.8964 29.9896 29.8964C29.989 29.8964 29.9886 29.8964 29.9879 29.8964H28.3115L31.9581 24.1228C32.0233 24.0197 32.0578 23.9006 32.0578 23.7787V23.0667C32.0578 22.9566 32.0296 22.8485 31.9759 22.7525L23.4338 7.44785ZM21.4475 21.2197C21.8772 21.2197 22.2267 21.5692 22.2267 21.9989C22.2267 22.4285 21.8772 22.778 21.4475 22.778C21.0179 22.778 20.6684 22.4285 20.6684 21.9989C20.6684 21.5692 21.0179 21.2197 21.4475 21.2197ZM27.9214 35.5911H20.8497C20.4938 35.5911 20.2051 35.8798 20.2051 36.2357C20.2051 36.5918 20.4938 36.8802 20.8497 36.8802H26.4977V38.4385H25.7182C25.3624 38.4385 25.0737 38.7269 25.0737 39.083C25.0737 39.4392 25.3624 39.7276 25.7182 39.7276H26.4974V42.7099H16.397V39.7279H17.1762C17.532 39.7279 17.8207 39.4395 17.8207 39.0834C17.8207 38.7272 17.532 38.4388 17.1762 38.4388H16.397V36.8802H18.0956C18.4518 36.8802 18.7402 36.5918 18.7402 36.2357C18.7402 35.8798 18.4518 35.5911 18.0956 35.5911H14.973V34.0328H27.9214V35.5911ZM29.3451 32.7438H13.5497V31.1855H27.1402H27.1416H27.1429H29.3451V32.7438ZM30.7688 23.5921L29.4844 25.6254H27.8539C27.4981 25.6254 27.2094 25.9137 27.2094 26.2699C27.2094 26.6261 27.4981 26.9144 27.8539 26.9144H28.6703L26.7868 29.8964H22.0917V28.4053C22.0917 28.0494 21.8034 27.7607 21.4472 27.7607C21.0914 27.7607 20.8027 28.0494 20.8027 28.4053V29.8964H16.1077L14.2244 26.9144H15.0405C15.3967 26.9144 15.685 26.6261 15.685 26.2699C15.685 25.9137 15.3967 25.6254 15.0405 25.6254H13.41L12.126 23.5921V23.2342L20.4022 8.40625H20.8027V20.034C19.9772 20.3056 19.379 21.0834 19.379 21.9985C19.379 23.1392 20.3069 24.0671 21.4472 24.0671C22.5879 24.0671 23.5158 23.1392 23.5158 21.9985C23.5158 21.0834 22.9175 20.3053 22.0921 20.034V8.40625H22.4926L30.7688 23.2342V23.5921Z" fill="white" stroke="white" stroke-width="2" mask="url(#path-2-inside-1)"/>
</svg>
