<svg width="44" height="44" viewBox="0 0 44 44" fill="none" xmlns="http://www.w3.org/2000/svg">
<g clip-path="url(#clip0)">
<path d="M24.3697 -0.000976562C15.3791 -0.000976562 8.0647 7.31345 8.0647 16.304V18.9778L3.52478 26.7914C3.46771 26.8897 3.4375 27.0015 3.4375 27.1153V29.8291C3.4375 30.1852 3.7262 30.4736 4.08203 30.4736H8.0647L8.06503 34.8121C8.06503 36.7376 9.63138 38.304 11.5569 38.304H12.8681C13.224 38.304 13.5123 38.0153 13.5123 37.6595C13.5123 37.3033 13.224 37.0149 12.8678 37.0149H11.5569C10.342 37.0149 9.3541 36.0266 9.3541 34.8121V30.4736H11.2007C11.5566 30.4736 11.8453 30.1852 11.8453 29.8291V25.558C11.8453 25.2022 11.5566 24.9135 11.2007 24.9135H9.77707C9.4209 24.9135 9.13254 25.2022 9.13254 25.558C9.13254 25.9142 9.4209 26.2026 9.77707 26.2026H10.5562V29.1845H4.72656V27.6263H6.92938C7.28522 27.6263 7.57391 27.3376 7.57391 26.9817C7.57391 26.6255 7.28522 26.3372 6.92938 26.3372H5.27979L9.25809 19.4897C9.31885 19.391 9.35376 19.2752 9.35376 19.1517V16.304C9.35376 8.02444 16.0898 1.28809 24.3697 1.28809C32.6499 1.28809 39.3859 8.02444 39.3859 16.304V21.9987C39.3859 28.1919 35.6822 33.6533 29.9402 35.9467H28.2849C27.9287 35.9467 27.6403 36.2351 27.6403 36.5913C27.6403 36.9474 27.9287 37.2358 28.2849 37.2358H29.4202V42.71H17.54V38.304H19.0308C19.387 38.304 19.6753 38.0156 19.6753 37.6595C19.6753 37.3036 19.387 37.0149 19.0308 37.0149H16.8971H16.8954H15.4503C15.0945 37.0149 14.8058 37.3033 14.8058 37.6595C14.8058 38.0153 15.0945 38.304 15.4503 38.304H16.2509V43.3545C16.2509 43.7107 16.5396 43.999 16.8954 43.999H30.0647C30.4205 43.999 30.7092 43.7107 30.7092 43.3545V37.025C33.5559 35.8239 35.9883 33.8513 37.7642 31.2987C39.6682 28.5612 40.675 25.3456 40.675 21.9987V16.304C40.675 7.31345 33.3605 -0.000976562 24.3697 -0.000976562Z" fill="white"/>
<path d="M15.8848 15.5923C15.8848 17.3319 16.4078 19.0033 17.3977 20.4263C18.2796 21.6939 19.4727 22.6859 20.8675 23.3163V24.6467H20.8003C20.4442 24.6467 20.1558 24.935 20.1558 25.2912C20.1558 25.647 20.4442 25.9357 20.8003 25.9357H20.8675V27.6938C20.8675 28.0496 21.1562 28.3383 21.512 28.3383H21.5795V29.8294C21.5795 30.1853 21.8682 30.474 22.224 30.474H26.495C26.8509 30.474 27.1396 30.1853 27.1396 29.8294V28.3383H27.207C27.5629 28.3383 27.8516 28.0496 27.8516 27.6938V25.9357H27.9187C28.2749 25.9357 28.5632 25.647 28.5632 25.2912C28.5632 24.935 28.2749 24.6467 27.9187 24.6467H27.8516V23.3163C29.2464 22.6859 30.4394 21.6939 31.3213 20.4263C32.3109 19.0033 32.8343 17.3319 32.8343 15.5923C32.8343 10.9192 29.0325 7.11743 24.3593 7.11743C19.6865 7.11743 15.8848 10.9192 15.8848 15.5923ZM22.8685 17.6606H23.3808L24.6155 18.8956C24.7363 19.0164 24.9005 19.0846 25.0714 19.0846C25.2422 19.0846 25.4064 19.0164 25.5272 18.8956L25.8505 18.5723V22.2441H22.8685V17.6606ZM25.8505 29.1849H22.8685V28.3383H25.8505V29.1849ZM26.5625 27.0492H22.1565V25.9357H26.5625V27.0492ZM22.1565 24.6467V23.5332H26.5625V24.6467H22.1565ZM24.3597 8.40649C28.3219 8.40649 31.5452 11.6302 31.5452 15.5923C31.5452 18.5146 29.8217 21.0957 27.1396 22.2193V17.016C27.1396 17.016 27.1396 17.016 27.1396 17.0157V16.304C27.1396 15.9482 26.8509 15.6595 26.495 15.6595C26.1389 15.6595 25.8505 15.9482 25.8505 16.304V16.7491L25.0714 17.5283L24.1035 16.5601C23.9827 16.4393 23.8185 16.3715 23.6477 16.3715H22.8685V16.304C22.8685 15.9482 22.5802 15.6595 22.224 15.6595C21.8682 15.6595 21.5795 15.9482 21.5795 16.304V22.2193C18.8973 21.0957 17.1738 18.5146 17.1738 15.5923C17.1738 11.6302 20.3972 8.40649 24.3597 8.40649Z" fill="white"/>
<path d="M25.0039 5.62631V3.49097C25.0039 3.1348 24.7155 2.84644 24.3594 2.84644C24.0035 2.84644 23.7148 3.1348 23.7148 3.49097V5.62631C23.7148 5.98248 24.0035 6.27084 24.3594 6.27084C24.7155 6.27084 25.0039 5.98248 25.0039 5.62631Z" fill="white"/>
<path d="M16.1955 6.60557C15.9438 6.35413 15.5356 6.35413 15.2838 6.60557C15.0324 6.85734 15.0324 7.26554 15.2838 7.51731L16.7941 9.02726C16.92 9.15315 17.0848 9.21626 17.2499 9.21626C17.4148 9.21626 17.5796 9.15315 17.7055 9.02726C17.9573 8.77549 17.9573 8.36762 17.7055 8.11585L16.1955 6.60557Z" fill="white"/>
<path d="M14.3051 15.0369H12.1694C11.8136 15.0369 11.5249 15.3256 11.5249 15.6814C11.5249 16.0376 11.8136 16.3259 12.1694 16.3259H14.3051C14.661 16.3259 14.9496 16.0376 14.9496 15.6814C14.9496 15.3256 14.661 15.0369 14.3051 15.0369Z" fill="white"/>
<path d="M16.7943 22.3354L15.284 23.8457C15.0323 24.0975 15.0323 24.5054 15.284 24.7571C15.4099 24.883 15.5748 24.9458 15.7396 24.9458C15.9047 24.9458 16.0696 24.883 16.1954 24.7571L17.7057 23.2472C17.9575 22.9954 17.9575 22.5872 17.7057 22.3354C17.454 22.0837 17.0458 22.084 16.7943 22.3354Z" fill="white"/>
<path d="M31.014 22.3353C30.7623 22.5871 30.7623 22.9949 31.014 23.2467L32.524 24.757C32.6499 24.8829 32.815 24.9457 32.9798 24.9457C33.1447 24.9457 33.3098 24.8829 33.4357 24.757C33.6875 24.5052 33.6875 24.097 33.4357 23.8453L31.9254 22.3353C31.6737 22.0835 31.2658 22.0835 31.014 22.3353Z" fill="white"/>
<path d="M36.5502 16.3259C36.9064 16.3259 37.1948 16.0372 37.1948 15.6814C37.1948 15.3252 36.9064 15.0369 36.5502 15.0369H34.4146C34.0584 15.0369 33.77 15.3252 33.77 15.6814C33.77 16.0372 34.0584 16.3259 34.4146 16.3259H36.5502Z" fill="white"/>
<path d="M32.524 6.60533L31.0137 8.11562C30.7623 8.36739 30.7623 8.77525 31.0141 9.02702C31.1396 9.15291 31.3048 9.21568 31.4696 9.21568C31.6344 9.21568 31.7996 9.15291 31.9255 9.02702L33.4354 7.51674C33.6872 7.26497 33.6872 6.8571 33.4354 6.60533C33.184 6.35356 32.7758 6.35356 32.524 6.60533Z" fill="white"/>
</g>
<defs>
<clipPath id="clip0">
<rect width="44" height="44" fill="white" transform="translate(0 -0.000976562)"/>
</clipPath>
</defs>
</svg>
